# xmcd
#
# Track frame offsets: 
#        150
#        20866
#        38801
#        57243
#        73721
#        93077
#        114983
#        134608
#        149952
#        168258
#        183658
#        203022
#
# Disc length: 2933 seconds
#
# Revision: 0
# Processed by: cddbd v1.5.2PL0 Copyright (c) Steve Scherf et al.
# Submitted via: ExactAudioCopy v0.99pb5
#
DISCID=b40b730c
DTITLE=Kris Lawrence - Moments of Love
DYEAR=1900
DGENRE=R&B
TTITLE0=Careless Whisper
TTITLE1=Suddenly
TTITLE2=Right Here Waiting (feat. Jay R)
TTITLE3=Just Tel Me You Love Me
TTITLE4=Honesty
TTITLE5=All My Life (feat. Billy Crawford)
TTITLE6=Your Song
TTITLE7=Now and Forever
TTITLE8=I Will Take You Forever (duet with Denise Laurel)
TTITLE9=Without You
TTITLE10=We All Fall In Love Sometimes
TTITLE11=Moments of Love
EXTD=
EXTT0=
EXTT1=
EXTT2=
EXTT3=
EXTT4=
EXTT5=
EXTT6=
EXTT7=
EXTT8=
EXTT9=
EXTT10=
EXTT11=
PLAYORDER=
